<?xml version="1.0" standalone="no"?>
<!DOCTYPE svg PUBLIC "-//W3C//DTD SVG 20010904//EN"
 "http://www.w3.org/TR/2001/REC-SVG-20010904/DTD/svg10.dtd">
<svg version="1.0" xmlns="http://www.w3.org/2000/svg"
 width="800.000000pt" height="422.000000pt" viewBox="0 0 800.000000 422.000000"
 preserveAspectRatio="xMidYMid meet">
<metadata>
Created by potrace 1.16, written by Peter Selinger 2001-2019
</metadata>
<g transform="translate(0.000000,422.000000) scale(0.100000,-0.100000)"
fill="#000000" stroke="none">
<path d="M870 2890 l0 -70 90 0 90 0 0 -570 0 -570 -70 0 -70 0 0 -70 0 -70
220 0 220 0 0 70 0 70 -69 0 -68 0 4 218 c6 314 29 385 143 447 70 37 174 42
230 9 90 -52 105 -120 95 -436 l-7 -238 -59 0 -59 0 0 -70 0 -70 213 2 212 3
3 68 3 67 -71 0 -71 0 3 288 c3 322 -2 362 -65 444 -114 150 -415 140 -545
-17 l-27 -34 3 300 3 299 -175 0 -176 0 0 -70z"/>
<path d="M6230 2733 c-35 -2 -68 -9 -72 -16 -4 -7 -8 -58 -8 -114 l0 -103 -75
0 -75 0 0 -70 0 -70 73 0 72 0 -3 -309 c-3 -261 -1 -319 12 -365 20 -68 53
-108 114 -138 40 -19 62 -23 147 -22 70 1 117 7 155 20 l55 19 6 70 c3 39 4
71 4 73 -1 1 -19 -5 -41 -14 -49 -21 -180 -30 -217 -15 -18 7 -35 26 -47 53
-18 39 -20 68 -20 336 l0 292 150 0 150 0 0 70 0 70 -145 0 -145 0 0 120 c0
90 -3 120 -12 118 -7 -1 -42 -3 -78 -5z"/>
<path d="M2380 2505 c-203 -57 -330 -251 -330 -504 0 -261 142 -436 382 -472
252 -37 465 106 523 352 22 94 20 252 -5 332 -41 132 -131 228 -260 278 -73
29 -232 35 -310 14z m263 -162 c104 -56 152 -162 151 -328 -1 -130 -26 -199
-98 -271 -57 -58 -98 -74 -191 -74 -168 0 -276 136 -277 350 -2 179 65 295
196 342 69 25 151 17 219 -19z"/>
<path d="M3549 2502 c-62 -21 -137 -69 -167 -107 -11 -14 -21 -25 -23 -25 -2
0 -2 29 -1 65 l4 65 -161 0 -161 0 0 -70 0 -70 75 0 75 0 0 -294 c0 -161 -3
-314 -6 -340 l-7 -46 -59 0 -59 0 3 -67 3 -68 213 -3 212 -2 0 70 0 70 -67 0
-68 0 3 222 c3 251 16 322 71 389 71 86 227 113 313 55 78 -52 91 -119 82
-428 l-7 -238 -58 0 -59 0 0 -70 0 -70 213 2 212 3 3 68 3 67 -71 0 -71 0 3
288 c2 250 0 294 -15 344 -24 79 -71 137 -139 172 -75 38 -204 46 -289 18z"/>
<path d="M4500 2505 c-70 -20 -124 -52 -178 -106 -171 -172 -179 -559 -15
-740 100 -110 286 -158 483 -125 192 33 210 46 210 153 0 49 -2 54 -17 48
-129 -55 -146 -59 -273 -60 -107 0 -132 3 -171 21 -93 43 -157 138 -167 246
l-5 58 338 0 338 0 -6 98 c-11 201 -94 338 -240 394 -70 28 -221 34 -297 13z
m194 -129 c26 -8 63 -27 83 -42 39 -30 81 -110 85 -164 l3 -35 -247 -3 -248
-2 0 27 c0 39 42 123 76 154 51 44 64 52 112 65 62 17 80 17 136 0z"/>
<path d="M5443 2510 c-105 -22 -186 -80 -225 -158 -17 -36 -22 -64 -22 -122 0
-159 81 -225 349 -285 168 -37 218 -71 218 -145 0 -83 -70 -133 -194 -138 -63
-3 -191 16 -206 31 -1 2 -6 36 -9 75 l-7 72 -73 0 -74 0 0 -128 c0 -149 -7
-140 122 -166 226 -45 410 -21 515 68 18 15 45 53 60 84 23 47 28 70 27 132 0
157 -77 224 -307 270 -142 29 -189 46 -223 81 -42 43 -41 106 1 149 45 45 141
66 236 52 39 -6 76 -15 81 -20 4 -4 11 -38 15 -75 l6 -67 73 0 74 0 0 120 0
120 -27 11 c-98 37 -320 58 -410 39z"/>
<path d="M6914 1871 c-98 -25 -159 -142 -123 -238 46 -121 219 -153 301 -55
55 66 61 151 15 221 -38 58 -123 89 -193 72z"/>
</g>
</svg>
